<?xml version="1.0" encoding="UTF-8" standalone="no" ?>
<!DOCTYPE svg PUBLIC "-//W3C//DTD SVG 1.1//EN" "http://www.w3.org/Graphics/SVG/1.1/DTD/svg11.dtd">
<svg xmlns="http://www.w3.org/2000/svg" xmlns:xlink="http://www.w3.org/1999/xlink" version="1.1" width="3200" height="3200" viewBox="0 0 400 400" xml:space="preserve">
<desc>Created with Fabric.js 3.2.0</desc>
<defs>
</defs>
<g clip-path="url(#CLIPPATH_6)"  >
<g transform="matrix(0.19908204 0 0 0.19908204 302 221.5)"  >
<clipPath id="CLIPPATH_6" >
	<rect transform="matrix(1 0 0 1 302.5 222)" x="-96" y="-173.5" rx="0" ry="0" width="192" height="347" />
</clipPath>
	<image style="stroke: none; stroke-width: 0; stroke-dasharray: none; stroke-linecap: butt; stroke-dashoffset: 0; stroke-linejoin: miter; stroke-miterlimit: 4; fill: rgb(0,0,0); fill-rule: nonzero; opacity: 1;"  xlink:href="2a45c0d0-c9c9-4a41-909a-653e9fa5699c.jpg" x="-649" y="-871.5" width="1298" height="1743"></image>
</g>
</g>
<g style="" clip-path="url(#CLIPPATH_7)"  >
<g transform="matrix(0.34534593 0 0 0.34534593 302.5 328)"  >
<clipPath id="CLIPPATH_7" >
	<rect transform="matrix(1 0 0 1 303 328.5)" x="-96.5" y="-72" rx="0" ry="0" width="193" height="144" />
</clipPath>
		<text xml:space="preserve" font-family="Lato" font-size="128.12598425196848" font-style="normal" font-weight="normal" style="stroke: none; stroke-width: 1; stroke-dasharray: none; stroke-linecap: butt; stroke-dashoffset: 0; stroke-linejoin: miter; stroke-miterlimit: 4; fill: rgb(15,13,13); fill-rule: nonzero; opacity: 1; white-space: pre;" ><tspan x="-202.31133187" y="40.24949669" >Nadine</tspan></text>
</g>
</g>
<g style="" clip-path="url(#CLIPPATH_8)"  >
<g transform="matrix(0.13182156 0 0 0.13182156 303.56591078 109.10985764)"  >
<clipPath id="CLIPPATH_8" >
	<rect transform="matrix(1 0 0 1 304 124.5)" x="-96.5" y="-77" rx="0" ry="0" width="193" height="154" />
</clipPath>
		<text xml:space="preserve" font-family="Lato" font-size="137.02362204724406" font-style="normal" font-weight="normal" style="stroke: none; stroke-width: 1; stroke-dasharray: none; stroke-linecap: butt; stroke-dashoffset: 0; stroke-linejoin: miter; stroke-miterlimit: 4; fill: rgb(15,13,13); fill-rule: nonzero; opacity: 1; white-space: pre;" ><tspan x="-443.1353053" y="43.04460063" >Ich Liebe Dich!</tspan></text>
</g>
</g>
</svg>